REM MD5 a4a56692c2e9b95559952c0674c526f9
FILE "Euro Demo 12 (Europe).bin" BINARY
  TRACK 01 MODE2/2352
    INDEX 01 00:00:00
  TRACK 02 AUDIO
    INDEX 00 12:27:18
    INDEX 01 12:29:18
  TRACK 03 AUDIO
    INDEX 00 14:33:56
    INDEX 01 14:35:56
  TRACK 04 AUDIO
    INDEX 00 17:35:56
    INDEX 01 17:37:56
  TRACK 05 AUDIO
    INDEX 00 19:55:19
    INDEX 01 19:57:19
  TRACK 06 AUDIO
    INDEX 00 21:57:19
    INDEX 01 21:59:19
REM LEADOUT 26:32:61
